<?xml version="1.0" standalone="no"?>
<!DOCTYPE svg PUBLIC "-//W3C//DTD SVG 20010904//EN"
 "http://www.w3.org/TR/2001/REC-SVG-20010904/DTD/svg10.dtd">
<svg version="1.0" xmlns="http://www.w3.org/2000/svg"
 width="512.000000pt" height="512.000000pt" viewBox="0 0 512.000000 512.000000"
 preserveAspectRatio="xMidYMid meet">

<g transform="translate(0.000000,512.000000) scale(0.100000,-0.100000)"
fill="#000000" stroke="none">
<path d="M3090 2999 c0 -6 -4 -7 -10 -4 -7 4 -10 -128 -10 -389 0 -247 4 -397
10 -401 6 -4 5 -12 -2 -24 -7 -12 -8 -27 -1 -47 6 -18 6 -88 2 -179 -9 -190
-9 -580 1 -620 10 -42 19 -15 23 70 l3 70 2 -77 c2 -75 3 -78 28 -84 15 -4 64
3 115 15 439 108 688 442 666 894 -6 130 -29 215 -88 326 -127 237 -359 406
-604 440 -44 6 -92 13 -107 16 -16 2 -28 0 -28 -6z"/>
<path d="M2181 2713 c1 -153 4 -345 8 -426 4 -98 2 -152 -4 -157 -6 -5 -188
-10 -404 -12 -383 -3 -394 -4 -402 -23 -7 -19 -8 -19 -8 3 -1 18 -7 22 -31 22
-37 0 -39 -16 -2 -37 15 -9 50 -42 77 -75 28 -32 205 -213 395 -403 265 -265
351 -345 370 -345 20 0 113 88 433 410 l407 411 0 43 0 44 -381 376 c-214 211
-385 373 -391 370 -7 -5 -8 -2 -4 5 8 13 -17 46 -46 62 -17 9 -18 -6 -17 -268z"/>
</g>
</svg>
